<?xml version="1.0" encoding="utf-8"?>
<!-- Generator: Adobe Illustrator 27.3.1, SVG Export Plug-In . SVG Version: 6.00 Build 0)  -->
<svg version="1.1" id="Layer_1" xmlns="http://www.w3.org/2000/svg" xmlns:xlink="http://www.w3.org/1999/xlink" x="0px" y="0px"
	 viewBox="0 0 200 200" style="enable-background:new 0 0 200 200;" xml:space="preserve">
<style type="text/css">
	.st0{fill:#FCB823;}
	.st1{fill:#898B8E;}
</style>
<path class="st0" d="M38.23,154.39V77.74c0-26.19,27.3-31.71,46.88-24.26v14.61c-13.51-5.51-28.68-4.14-28.68,12.68h21.78v14.61
	H56.43v58.73L38.23,154.39z"/>
<path class="st0" d="M125.09,69.46h13.51l2.76,11.3h16.82v14.61h-14.89v33.92c0,6.89,3.03,10.2,8.82,10.2h9.38v14.61h-18.2
	c-12.13,0-18.47-6.62-18.47-19.58V69.46H125.09z"/>
<rect x="92.56" y="80.77" class="st0" width="18.47" height="73.35"/>
<rect x="92.56" y="54.3" class="st0" width="18.47" height="15.17"/>
<path class="st0" d="M177.21,154.12c-16.27,25.64-44.67,42.46-77.21,42.46c-32.54,0-60.94-16.82-77.21-42.46
	c19.03,17.65,46.6,28.4,77.21,28.4C130.61,182.79,158.18,171.76,177.21,154.12"/>
<path class="st1" d="M38.07,30.81V25.7c2.7,1.14,5.96,1.7,9.51,1.7c2.7,0,3.97-0.85,3.97-2.55c0-1.56-0.85-2.41-2.7-2.41h-4.4
	c-4.97,0-7.52-2.55-7.52-7.52c0-5.11,3.69-7.66,10.93-7.66c3.12,0,5.96,0.43,8.8,1.42v5.11c-2.7-1.14-5.68-1.7-8.94-1.7
	c-3.41,0-4.97,0.85-4.97,2.55c0,1.56,0.99,2.41,2.98,2.41h3.97c5.39,0,8.23,2.55,8.23,7.52c0,5.11-3.55,7.66-10.5,7.66
	C43.88,32.23,40.9,31.66,38.07,30.81 M62.04,31.94V7.39h4.82l0.71,3.12c2.84-2.13,5.68-3.12,8.37-3.12c3.12,0,5.25,1.14,6.53,3.41
	c3.12-2.27,6.1-3.41,8.8-3.41c5.25,0,7.8,3.12,7.8,9.36v15.18h-6.24V16.48c0-2.7-1.14-4.11-3.41-4.11c-1.84,0-3.83,0.99-5.82,3.12
	v16.46h-6.24V16.48c0-2.84-1.14-4.11-3.41-4.11c-1.99,0-3.97,0.99-5.82,3.12v16.46H62.04z M103.76,24.28
	c0-5.11,3.55-7.52,10.64-7.52c2.13,0,4.11,0.14,5.67,0.43v-1.56c0-2.13-2.13-3.26-6.38-3.26c-2.7,0-5.39,0.43-7.95,1.14V8.53
	c2.7-0.71,5.39-1.14,7.95-1.14c8.37,0,12.63,2.7,12.63,8.09v16.46h-3.12l-2.7-1.7c-2.13,1.13-4.4,1.7-6.81,1.7
	C107.03,31.94,103.76,29.39,103.76,24.28 M120.08,21.87c-1.56-0.28-3.4-0.43-5.67-0.43c-2.98,0-4.54,0.99-4.54,2.84
	c0,1.84,1.28,2.84,3.69,2.84c2.55,0,4.68-0.71,6.39-1.99v-3.26H120.08z M132.42,31.94V7.39h4.82l0.71,3.12
	c2.13-2.13,4.4-3.12,6.81-3.12v4.97c-2.27,0-4.4,0.99-6.24,3.12v16.46H132.42z M148.6,3.42h4.54l0.99,3.97h5.68v4.97h-4.97v11.35
	c0,2.27,0.99,3.41,2.98,3.41h1.99v4.97h-5.11c-4.11,0-6.24-2.27-6.24-6.67V3.42H148.6z"/>
</svg>
